<svg width="173" height="280" viewBox="0 0 173 280" fill="none" xmlns="http://www.w3.org/2000/svg">
<path fill-rule="evenodd" clip-rule="evenodd" d="M150.084 147.943L150.933 148.547L158.232 153.713C158.581 153.995 158.859 154.353 159.045 154.76C159.231 155.168 159.319 155.613 159.303 156.06C159.825 159.372 159.651 162.647 159.472 166.022L159.472 166.025L160.513 229.002L160.281 233.371L159.344 236.009L148.76 242.018L89.712 278.707C88.9718 279.213 88.079 279.447 87.1856 279.369L86.3907 279.327L83.5932 277.586C79.5618 275.409 76.0099 273.205 72.4327 270.985C71.1102 270.164 69.7842 269.342 68.4293 268.517L53.7413 259.872L37.8089 250.265L22.2527 241.076L16.459 237.582C16.0194 237.297 15.6631 236.901 15.4255 236.433C15.1879 235.966 15.0774 235.445 15.1055 234.922L14.8332 223.159C14.5432 210.773 14.2846 198.548 14.023 186.179C13.872 179.037 13.7199 171.847 13.5602 164.551L13.354 157.172C13.3295 156.608 13.4605 156.048 13.7328 155.553C14.0051 155.059 14.4084 154.648 14.8982 154.367L22.7119 149.077L25.7872 152.243L34.0118 155.928L18.3061 159.625L18.2745 160.221C18.4981 169.615 18.6937 179.035 18.8895 188.467C19.0719 197.251 19.2545 206.047 19.4602 214.843L35.7463 156.706L41.9992 159.508L21.671 231.388L79.8985 219.545L43.2402 160.064L52.7671 164.333L84.4553 216.302L122.833 163.598L131.112 160.413L144.252 151.776L145.277 151.831L144.748 151.451L150.084 147.943ZM123.808 136.425L136.921 138.575L110.356 119.669L113.858 126.385L116.971 131.519L123.808 136.425ZM51.7905 129.419L48.7934 135.812L38.8546 138.148L43.9444 134.703L51.7905 129.419ZM153.494 229.824L132.031 161.084L89.8673 219.477L153.494 229.824ZM87.0772 225.103L89.2914 271.616L148.528 235.136L87.0772 225.103ZM24.8852 236.536L83.3291 271.299L81.0991 225.085L24.8852 236.536ZM153.239 212.089L152.022 158.063L136.206 157.522L153.239 212.089Z" fill="white"/>
<path d="M166.252 137.385L138.457 155.709L118.917 163.247L92.2712 170.053L55.5941 163.98L15.9912 146.18L5.64636 135.5L21.4248 132.045L42.7415 127.019L50.474 110.475L55.5941 88.5915L71.1636 76.5502L83.5396 65.4321L68.6315 35.5274L81.1857 21.3621L86.6782 15.0664L102.371 4.04886L97.6631 30.8057L108.648 46.545L115.71 65.4321L109.568 83.0023L111.916 103.565L118.395 116.025L124.978 126.914L145.354 130.265L166.252 137.385Z" fill="white"/>
<path d="M98.3374 0C95.9916 0.920923 93.9024 2.38806 92.246 4.27796L70.0866 26.3979C67.3551 28.6565 65.6263 31.8909 65.2727 35.4041C64.9191 38.9173 65.969 42.4279 68.1963 45.1791L77.1232 58.4303C77.7944 59.2034 78.281 60.1171 78.5472 61.1033C78.8133 62.0894 78.8518 63.1226 78.66 64.1257C78.4681 65.1288 78.0508 66.0759 77.4392 66.8964C76.8275 67.7169 76.0376 68.3895 75.1277 68.8643L64.6256 76.0637C57.1097 80.8256 51.7594 88.3121 49.7124 96.9316C47.7169 105.07 45.6167 113.104 43.6212 121.347C43.5305 121.819 43.286 122.249 42.9254 122.569C42.5649 122.89 42.1082 123.084 41.6258 123.121L4.44806 131.885C3.59483 131.976 2.77356 132.258 2.0459 132.71C1.31824 133.162 0.703211 133.772 0.247253 134.494V136.581C2.34769 138.459 4.34317 140.441 6.54863 142.215C12.82 147.273 19.5733 151.711 26.7126 155.466C27.1109 155.747 27.5643 155.941 28.0433 156.035C28.5223 156.129 29.016 156.122 29.492 156.014C29.9679 155.906 30.4153 155.698 30.8051 155.406C31.1949 155.114 31.5182 154.743 31.7537 154.318C32.6989 152.545 31.7538 150.771 29.8634 149.519H29.3381L13.0599 139.085L10.9594 137.415L20.3064 135.224L45.1965 129.381H47.507C73.3423 129.381 99.1777 129.381 125.013 129.381C128.224 129.654 131.395 130.284 134.465 131.259L160.405 137.311L161.771 137.833C157.255 140.859 153.159 143.884 148.853 146.493C134.443 155.329 118.355 161.118 101.593 163.5C87.3679 165.56 72.8721 164.78 58.9543 161.205C56.3288 160.579 54.4383 161.205 53.9132 163.292C53.3881 165.378 54.6483 167.048 57.4839 167.778C85.6932 174.805 115.504 171.548 141.501 158.596C152.297 153.439 162.332 146.839 171.327 138.981C171.957 138.602 172.45 138.034 172.733 137.358C173.017 136.683 173.076 135.935 172.903 135.224C172.686 134.534 172.273 133.921 171.714 133.459C171.156 132.996 170.474 132.703 169.752 132.616L130.789 123.33C130.366 123.252 129.963 123.093 129.602 122.86C129.242 122.627 128.931 122.326 128.689 121.973C124.173 115.295 119.762 108.618 115.246 102.044C113.786 99.9558 112.804 97.5755 112.369 95.07C111.933 92.5646 112.055 89.9947 112.725 87.541C114.931 79.2981 116.926 70.951 119.027 62.6038C119.68 60.2715 119.684 57.8066 119.036 55.4725C118.389 53.1384 117.115 51.0229 115.351 49.3526L104.219 38.2926C102.991 37.3022 102.129 35.9351 101.768 34.4055C101.407 32.876 101.567 31.2706 102.223 29.8412C104.534 24.1025 106.529 18.2595 108.734 12.4164C109.27 11.3064 109.548 10.0913 109.549 8.86034C109.55 7.62941 109.273 6.41392 108.739 5.30312C108.205 4.19231 107.428 3.21439 106.464 2.44116C105.5 1.66794 104.374 1.11901 103.168 0.834737L98.3374 0ZM54.9634 102.149C54.9634 101.001 54.9634 100.166 55.5935 99.3314C56.3237 95.5123 57.8624 91.8909 60.1075 88.707C62.3525 85.5232 65.2526 82.8495 68.6161 80.8633C71.9768 78.7765 75.2325 76.4811 78.4882 74.29C80.185 73.347 81.656 72.0495 82.7992 70.4871C83.9425 68.9247 84.731 67.1345 85.1104 65.24C85.4897 63.3455 85.4508 61.3917 84.9966 59.5135C84.5423 57.6354 83.6834 55.8775 82.4791 54.361L73.2371 40.6926C72.254 39.3707 71.7962 37.7349 71.9513 36.0986C72.1063 34.4622 72.8634 32.9401 74.0775 31.8236L98.2323 7.72119C98.9674 6.99082 99.8076 6.3648 100.858 7.09518C101.908 7.82556 101.593 8.76462 100.858 9.70367L94.3465 27.1284C93.2457 29.7 92.9777 32.5483 93.5799 35.278C94.1821 38.0077 95.6247 40.4835 97.7073 42.3619L108.734 53.3176C109.817 54.2289 110.596 55.4439 110.971 56.8032C111.346 58.1624 111.299 59.6023 110.835 60.9343C109.365 66.7774 107.789 72.6205 106.424 78.4635C105.059 84.3065 104.534 87.1237 103.904 91.5059C103.749 95.1242 104.546 98.72 106.214 101.94L54.9634 102.149ZM74.1823 122.182V108.931H92.4562V122.182H74.1823ZM99.3877 122.182V108.931H104.534C106.634 108.931 109.155 108.305 110.835 108.931C112.515 109.557 113.251 112.165 114.511 113.939C115.771 115.713 117.976 119.156 119.867 121.869L99.3877 122.182ZM49.9223 122.182C50.9725 118.008 51.9179 113.939 53.0731 109.87C53.0731 109.87 53.9134 109.035 54.4385 108.931H67.2511V122.182H49.9223Z" fill="white"/>
<path d="M29.1731 149.809C39.9234 154.562 51.0025 158.572 62.3286 161.808L57.371 167.354C45.0218 163.922 33.1041 159.153 21.8397 153.137L29.1731 149.809Z" fill="white"/>
</svg>
